<?xml version="1.0" encoding="UTF-8" standalone="no" ?>
<!DOCTYPE svg PUBLIC "-//W3C//DTD SVG 1.1//EN" "http://www.w3.org/Graphics/SVG/1.1/DTD/svg11.dtd">
<svg xmlns="http://www.w3.org/2000/svg" xmlns:xlink="http://www.w3.org/1999/xlink" version="1.1" width="1080" height="1080" viewBox="0 0 1080 1080" xml:space="preserve">
<desc>Created with Fabric.js 5.2.4</desc>
<defs>
</defs>
<g transform="matrix(1 0 0 1 540 540)" id="5893a6b1-aec9-4a0c-b668-cb66a45ea623"  >
<rect style="stroke: none; stroke-width: 1; stroke-dasharray: none; stroke-linecap: butt; stroke-dashoffset: 0; stroke-linejoin: miter; stroke-miterlimit: 4; fill: rgb(255,255,255); fill-rule: nonzero; opacity: 1; visibility: hidden;" vector-effect="non-scaling-stroke"  x="-540" y="-540" rx="0" ry="0" width="1080" height="1080" />
</g>
<g transform="matrix(1 0 0 1 540 540)" id="b48927b7-be6d-4a23-9cbc-607fa8a31f16"  >
</g>
<g transform="matrix(12.13 0 0 12.13 533.57 555.21)" id="9eccb51e-dde4-4153-91c8-b4b566dbe883"  >
<circle style="stroke: rgb(0,0,0); stroke-width: 0; stroke-dasharray: none; stroke-linecap: butt; stroke-dashoffset: 0; stroke-linejoin: miter; stroke-miterlimit: 4; fill: rgb(255,255,255); fill-rule: nonzero; opacity: 1;" vector-effect="non-scaling-stroke"  cx="0" cy="0" r="35" />
</g>
<g transform="matrix(1 0 0 1 540 540)"  >
<g style="" vector-effect="non-scaling-stroke"   >
		<g transform="matrix(0.13 0 0 -0.13 -7.2 -120.63)"  >
<path style="stroke: none; stroke-width: 1; stroke-dasharray: none; stroke-linecap: butt; stroke-dashoffset: 0; stroke-linejoin: miter; stroke-miterlimit: 4; fill: rgb(0,0,0); fill-rule: nonzero; opacity: 1;" vector-effect="non-scaling-stroke"  transform=" translate(-2560, -3388.84)" d="M 495 4866 C 458 4850 425 4814 411 4777 C 403 4757 400 4309 400 3324 L 400 1900 L 990 1900 L 1580 1900 L 1580 1959 L 1580 2017 L 1468 2023 C 1341 2030 1255 2048 1160 2087 C 889 2198 700 2408 614 2695 C 589 2776 587 2800 587 2935 C 587 3109 604 3190 670 3329 C 728 3450 786 3525 906 3637 C 994 3719 1017 3747 1048 3809 C 1083 3880 1085 3889 1085 3984 C 1085 4082 1084 4088 1043 4175 C 992 4284 986 4314 1001 4373 C 1024 4466 1117 4539 1213 4540 C 1304 4540 1369 4495 1426 4393 C 1547 4177 1564 3892 1468 3663 C 1420 3545 1366 3472 1230 3340 C 1095 3208 1063 3160 1035 3053 C 970 2804 1129 2542 1385 2475 C 1419 2466 1487 2460 1545 2460 L 1646 2460 L 1679 2533 C 1696 2572 1732 2637 1758 2675 L 1806 2745 L 1762 2837 C 1738 2888 1707 2973 1692 3027 L 1665 3125 L 1665 3630 C 1665 4119 1666 4139 1688 4249 C 1715 4380 1768 4547 1811 4632 C 1855 4719 1861 4718 2048 4615 C 2254 4500 2310 4456 2430 4308 C 2433 4305 2476 4312 2525 4326 C 2719 4378 2949 4379 3145 4328 C 3189 4317 3230 4307 3236 4306 C 3241 4306 3269 4332 3297 4366 C 3371 4454 3455 4516 3633 4615 C 3825 4722 3827 4722 3876 4615 C 3924 4511 3965 4380 3992 4248 C 4014 4139 4015 4117 4015 3630 L 4015 3125 L 3988 3027 C 3973 2973 3942 2888 3918 2837 L 3874 2745 L 3922 2675 C 3982 2587 4035 2465 4067 2341 C 4087 2263 4093 2212 4097 2073 L 4103 1900 L 4411 1900 L 4720 1900 L 4718 3339 C 4715 4775 4715 4779 4694 4806 C 4683 4821 4661 4843 4646 4854 L 4619 4875 L 2572 4877 C 881 4879 520 4877 495 4866 z" stroke-linecap="round" />
</g>
		<g transform="matrix(0.13 0 0 -0.13 33.84 -124.29)"  >
<path style="stroke: none; stroke-width: 1; stroke-dasharray: none; stroke-linecap: butt; stroke-dashoffset: 0; stroke-linejoin: miter; stroke-miterlimit: 4; fill: rgb(0,0,0); fill-rule: nonzero; opacity: 1;" vector-effect="non-scaling-stroke"  transform=" translate(-2840.22, -3425.38)" d="M 1875 4478 C 1838 4377 1803 4227 1790 4112 C 1783 4049 1780 3861 1782 3575 C 1786 3160 1787 3131 1808 3057 C 1868 2840 1991 2658 2168 2525 C 2566 2226 3114 2226 3512 2525 C 3686 2656 3814 2844 3872 3055 C 3893 3131 3894 3159 3898 3565 C 3902 4029 3896 4141 3856 4305 C 3825 4432 3781 4552 3766 4548 C 3760 4546 3706 4518 3647 4486 C 3512 4411 3429 4343 3356 4246 C 3292 4161 3286 4159 3197 4189 C 3086 4227 2980 4244 2840 4244 C 2700 4244 2594 4227 2483 4189 C 2397 4160 2386 4162 2339 4227 C 2279 4308 2234 4355 2181 4394 C 2130 4432 1925 4550 1911 4550 C 1906 4550 1890 4517 1875 4478 z M 2404 3561 C 2430 3534 2435 3522 2435 3480 C 2435 3437 2430 3426 2402 3398 C 2374 3370 2363 3365 2320 3365 C 2277 3365 2266 3370 2238 3398 C 2210 3426 2205 3437 2205 3479 C 2205 3531 2230 3571 2275 3591 C 2312 3607 2371 3594 2404 3561 z M 3444 3561 C 3470 3534 3475 3522 3475 3480 C 3475 3437 3470 3426 3442 3398 C 3414 3370 3403 3365 3360 3365 C 3317 3365 3306 3370 3278 3398 C 3250 3426 3245 3437 3245 3479 C 3245 3531 3270 3571 3315 3591 C 3352 3607 3411 3594 3444 3561 z M 2623 3059 C 2651 3044 2660 3031 2660 3003 C 2660 2972 2694 2940 2726 2940 C 2743 2940 2762 2952 2783 2975 C 2803 2998 2822 3010 2840 3010 C 2858 3010 2877 2998 2897 2975 C 2918 2952 2937 2940 2954 2940 C 2986 2940 3020 2972 3020 3003 C 3020 3048 3064 3077 3104 3059 C 3135 3044 3144 3020 3135 2972 C 3114 2857 2977 2786 2878 2838 C 2840 2858 2840 2858 2803 2838 C 2703 2786 2566 2857 2545 2972 C 2536 3018 2545 3044 2573 3058 C 2602 3072 2598 3072 2623 3059 z" stroke-linecap="round" />
</g>
		<g transform="matrix(0.13 0 0 -0.13 -188.62 -104.98)"  >
<path style="stroke: none; stroke-width: 1; stroke-dasharray: none; stroke-linecap: butt; stroke-dashoffset: 0; stroke-linejoin: miter; stroke-miterlimit: 4; fill: rgb(0,0,0); fill-rule: nonzero; opacity: 1;" vector-effect="non-scaling-stroke"  transform=" translate(-1156.72, -3280.17)" d="M 1147 4394 C 1105 4352 1104 4321 1145 4241 C 1232 4068 1233 3898 1147 3736 C 1125 3692 1078 3638 984 3545 C 840 3402 789 3328 746 3199 C 677 2992 688 2787 780 2594 C 912 2318 1196 2140 1506 2140 L 1579 2140 L 1585 2175 C 1588 2194 1592 2227 1595 2248 C 1598 2268 1603 2297 1606 2313 L 1612 2340 L 1522 2340 C 1343 2340 1203 2396 1079 2520 C 892 2705 849 2970 967 3210 C 998 3273 1024 3305 1145 3425 C 1272 3550 1291 3574 1328 3650 C 1435 3868 1438 4097 1335 4307 C 1315 4347 1288 4388 1273 4400 C 1236 4429 1179 4427 1147 4394 z" stroke-linecap="round" />
</g>
		<g transform="matrix(0.13 0 0 -0.13 33.79 84.41)"  >
<path style="stroke: none; stroke-width: 1; stroke-dasharray: none; stroke-linecap: butt; stroke-dashoffset: 0; stroke-linejoin: miter; stroke-miterlimit: 4; fill: rgb(0,0,0); fill-rule: nonzero; opacity: 1;" vector-effect="non-scaling-stroke"  transform=" translate(-2841.87, -1869)" d="M 1840 2584 C 1796 2511 1745 2383 1723 2290 C 1708 2229 1705 2170 1705 1965 C 1705 1681 1712 1642 1793 1485 C 1850 1374 1974 1250 2085 1193 C 2237 1115 2275 1107 2543 1102 L 2780 1098 L 2780 1293 L 2780 1488 L 2633 1581 C 2498 1666 2485 1678 2482 1706 C 2478 1743 2501 1770 2535 1770 C 2548 1770 2622 1730 2700 1680 L 2841 1590 L 2981 1680 C 3058 1730 3132 1770 3145 1770 C 3179 1770 3202 1743 3198 1706 C 3195 1678 3181 1666 3048 1581 L 2900 1487 L 2900 1292 L 2900 1098 L 3138 1102 C 3349 1106 3383 1109 3445 1129 C 3695 1210 3870 1386 3950 1635 C 3970 1695 3974 1733 3978 1911 C 3980 2039 3978 2151 3971 2206 C 3957 2311 3913 2447 3864 2539 C 3803 2655 3813 2653 3721 2558 C 3548 2377 3332 2258 3080 2204 C 2962 2179 2717 2178 2602 2203 C 2346 2259 2131 2379 1951 2564 C 1911 2606 1877 2640 1876 2640 C 1875 2640 1859 2615 1840 2584 z" stroke-linecap="round" />
</g>
		<g transform="matrix(0.13 0 0 -0.13 -8.2 163.84)"  >
<path style="stroke: none; stroke-width: 1; stroke-dasharray: none; stroke-linecap: butt; stroke-dashoffset: 0; stroke-linejoin: miter; stroke-miterlimit: 4; fill: rgb(0,0,0); fill-rule: nonzero; opacity: 1;" vector-effect="non-scaling-stroke"  transform=" translate(-2560, -1280.03)" d="M 245 1298 C 169 1032 105 807 102 798 C 98 781 220 780 2560 780 C 4900 780 5022 781 5018 798 C 5015 807 4951 1032 4875 1298 L 4737 1780 L 4419 1780 L 4100 1780 L 4096 1758 C 4071 1622 4056 1567 4027 1501 C 3924 1263 3732 1093 3475 1013 L 3385 985 L 2840 985 L 2295 985 L 2205 1013 C 1956 1091 1767 1254 1660 1482 C 1630 1546 1590 1685 1590 1726 C 1590 1784 1631 1780 980 1780 L 383 1780 L 245 1298 z M 880 1560 C 891 1549 900 1531 900 1520 C 900 1509 891 1491 880 1480 C 863 1463 847 1460 760 1460 C 673 1460 657 1463 640 1480 C 629 1491 620 1509 620 1520 C 620 1531 629 1549 640 1560 C 657 1577 673 1580 760 1580 C 847 1580 863 1577 880 1560 z M 1360 1560 C 1371 1549 1380 1531 1380 1520 C 1380 1509 1371 1491 1360 1480 C 1343 1463 1327 1460 1240 1460 C 1153 1460 1137 1463 1120 1480 C 1109 1491 1100 1509 1100 1520 C 1100 1531 1109 1549 1120 1560 C 1137 1577 1153 1580 1240 1580 C 1327 1580 1343 1577 1360 1560 z M 4480 1560 C 4491 1549 4500 1531 4500 1520 C 4500 1509 4491 1491 4480 1480 C 4463 1463 4447 1460 4360 1460 C 4273 1460 4257 1463 4240 1480 C 4229 1491 4220 1509 4220 1520 C 4220 1531 4229 1549 4240 1560 C 4257 1577 4273 1580 4360 1580 C 4447 1580 4463 1577 4480 1560 z M 880 1240 C 891 1229 900 1211 900 1200 C 900 1189 891 1171 880 1160 C 862 1142 847 1140 720 1140 C 593 1140 578 1142 560 1160 C 549 1171 540 1189 540 1200 C 540 1211 549 1229 560 1240 C 578 1258 593 1260 720 1260 C 847 1260 862 1258 880 1240 z M 1440 1240 C 1451 1229 1460 1211 1460 1200 C 1460 1189 1451 1171 1440 1160 C 1422 1142 1407 1140 1280 1140 C 1153 1140 1138 1142 1120 1160 C 1109 1171 1100 1189 1100 1200 C 1100 1211 1109 1229 1120 1240 C 1138 1258 1153 1260 1280 1260 C 1407 1260 1422 1258 1440 1240 z M 4560 1240 C 4571 1229 4580 1211 4580 1200 C 4580 1189 4571 1171 4560 1160 C 4542 1142 4527 1140 4400 1140 C 4273 1140 4258 1142 4240 1160 C 4229 1171 4220 1189 4220 1200 C 4220 1211 4229 1229 4240 1240 C 4258 1258 4273 1260 4400 1260 C 4527 1260 4542 1258 4560 1240 z" stroke-linecap="round" />
</g>
		<g transform="matrix(0.13 0 0 -0.13 -8.27 280.36)"  >
<path style="stroke: none; stroke-width: 1; stroke-dasharray: none; stroke-linecap: butt; stroke-dashoffset: 0; stroke-linejoin: miter; stroke-miterlimit: 4; fill: rgb(0,0,0); fill-rule: nonzero; opacity: 1;" vector-effect="non-scaling-stroke"  transform=" translate(-2560, -412.5)" d="M 82 461 C 85 242 87 235 154 186 L 181 165 L 2560 165 L 4939 165 L 4966 186 C 5033 235 5035 242 5038 461 L 5041 660 L 4018 660 L 2994 660 L 2920 509 C 2879 426 2837 354 2828 349 C 2806 337 2314 337 2292 349 C 2283 354 2241 426 2200 509 L 2126 660 L 1102 660 L 79 660 L 82 461 z" stroke-linecap="round" />
</g>
		<g transform="matrix(0.13 0 0 -0.13 -1 261.18)"  >
<path style="stroke: none; stroke-width: 1; stroke-dasharray: none; stroke-linecap: butt; stroke-dashoffset: 0; stroke-linejoin: miter; stroke-miterlimit: 4; fill: rgb(0,0,0); fill-rule: nonzero; opacity: 1;" vector-effect="non-scaling-stroke"  transform=" translate(-2560, -560)" d="M 2260 655 C 2260 652 2281 607 2307 555 L 2355 460 L 2560 460 L 2765 460 L 2813 555 C 2839 607 2860 652 2860 655 C 2860 658 2725 660 2560 660 C 2395 660 2260 658 2260 655 z" stroke-linecap="round" />
</g>
</g>
</g>
</svg>